<?xml version="1.0" encoding="utf-8"?>
<!-- Generator: Adobe Illustrator 25.2.1, SVG Export Plug-In . SVG Version: 6.00 Build 0)  -->
<svg version="1.1" id="Layer_1" xmlns="http://www.w3.org/2000/svg" xmlns:xlink="http://www.w3.org/1999/xlink" x="0px" y="0px"
	 viewBox="0 0 261.8 289.7" style="enable-background:new 0 0 261.8 289.7;" xml:space="preserve">
<style type="text/css">
	.st0{fill:#1F36C7;}
</style>
<g>
	<g>
		<g>
			<g>
				<g>
					<g>
						<path class="st0" d="M105.2,282.4c2.3,0,6.1-0.7,9.2-5.6c-1.7-3.9-3-11.7-3.2-14.5c-0.9-14.6,4.7-28.3,10.9-28.6
							c4.5-0.3,8.1,4,8.5,10.9c1.1,18.2-4.9,25.7-8,32.3c0.5,2.5,4.8,6.8,8.8,6.8c1.5,0,3.3-0.8,3.8-1.3c-0.3-1-0.6-2.4-0.6-4.4
							c0-10.5,6.8-19.4,12.6-19.4c4.7,0,7.4,6.1,7.4,10.2c0,4.8-4.1,8.7-10.1,12.5c1.1,1,3,1.8,4.7,1.8c8.6,0,13.1-10.4,16.4-19.8
							c0.6-1.8,1.7-4.4,3.8-4.4c3.6,0,5.1,23.7,11.1,23.7c2.6,0,4.6-5.3,4.6-9.3c0-3-1-3.3-1-7.7c0-4.8,2.6-8.8,6-8.8
							c2.1,0,2.9,2.1,2.9,4.6c0,9.6-6.9,27.5-17.1,27.5c-7.7,0-7.1-13.2-9.8-13.2c-3,0-7.2,13.4-22.1,13.4c-2.4,0-5-1.2-7.1-3.6
							c-3.6,2.4-6.6,3.5-10.1,3.5c-5.6,0-8-5.7-10.2-5.7c-2.7,0-5.7,5.8-14.7,5.8c-7.2,0-8.4-9.6-11-9.6c-2.3,0-5.7,9.6-9.5,9.6
							c-6.3,0-7.7-16.7-13.2-16.7c-4.4,0-18.1,16.9-21.9,16.5c-1.5-0.2-2.1-1.3-2-2.8c0.2-2.1,2-7.7,2.7-10.3
							c1.2-4.6,2.3-9.6,3-11.2c0.6-1.6,2.3-2.8,3.6-2.6c0.7,0.1,0.9,1.3,1.1,2.3c0.8,3.7,1.8,7.5,3,7.5c2.1,0,9.1-13.4,13.1-13.4
							c5,0,5.6,21,12.3,21c2.3,0,3.9-2.7,5.4-6c0.2-5.6,1.7-13.5,6.2-13.5c3.2,0,4.7,7.1,2.4,13.2C97.2,280.7,102,282.4,105.2,282.4
							z M225.3,264.4c-1.9,7.7-7.5,19.1-15.9,19.1c-2,0-5.4-0.8-5.4-2.7c0-2.1,13.2-2.4,13.2-12.5c0-3.7-3.4-9-8.6-9
							c-6.8,0-13.4,7.4-13.4,17.6c0,9.1,5.7,12.2,11.4,12.2c9.9,0,15.9-8.1,19.1-14.9c1.5,4.5,2.4,14.9,6.2,14.9
							c1.5,0,2.6-0.7,4.4-4.8c4.5-10.1,8.9-21.6,14.9-21.6c2.2,0,0.9,4.1,6.3,4.1c2.6,0,4.4-2.1,4.4-4.5c0-3.5-3.1-6.2-8-6.2
							c-14.1,0-17.1,21.2-19.4,21.2c-3.7,0-2.6-17-5.3-17C226.8,260.2,225.6,263.1,225.3,264.4z M125.7,248.6
							c-0.3-4.2-1.3-6.1-3.5-5.9c-3,0.2-4.4,9.6-3.8,19.5c0.4,6.4,1.3,7.5,2.3,7.4C122.3,269.4,126.3,257.9,125.7,248.6z
							 M101.2,239.8c-0.2-2.4-2.1-4-4.7-4c-2.8,0-5.5,3-5.3,6.7c0.2,2.5,1.6,4.5,4.5,4.5C99.1,247,101.5,243.2,101.2,239.8z
							 M148,270.4c0-2.6-1.3-4.7-3-4.7c-1.4,0-4.5,1.5-4.5,6.3c0,3.8,1.3,5.6,2,6.3C146.8,277,148,273.4,148,270.4z M206.7,265.3
							c3.1,0,4.1,3.7,3.3,6c-0.8,2.2-3.4,4.8-7.7,5.6C201.5,274.6,201,265.3,206.7,265.3z M33.7,254.7c-0.4-1.4-1.7-4.4-2-6.7
							c-0.7-5,1.9-8.3,4.3-9.1c2.7-0.8,3.7,0.6,4.8,3.8c1.4,4.8,1.5,11.1,1,20.1c-0.6,12.3-6.7,27.2-22.1,26.9
							c-13.2-0.3-19.1-8.9-19.7-21.9c-0.3-6.2,0.2-12.3,2.7-21c1.3-4.7,2.6-6.3,6.7-7.2c3.3-0.6,3,2.9,2.3,6.9
							c-1.6,9-2.4,13.4-1.8,23.6c0.6,10.8,5.6,15,11,15c8.1,0.2,11.7-6.6,13.2-16.4C35.4,260.8,34.5,257.1,33.7,254.7z"/>
					</g>
				</g>
			</g>
			<g>
				<g>
					<path class="st0" d="M210.9,59.2c1,7.6,12.5,17.8,15.6,17.5c2.1-0.2,2.9-9.9,2.9-17.5c0-4.4,0.2-7.8-2.1-8.6
						C223.7,58,214,59.5,210.9,59.2z M211.6,55.9c8.3,0,15.9-6.6,15.9-12.4c0-2.7-1.3-4.9-4.6-5.3c0.6,0.7,0.8,1.3,0.8,2.6
						c0,4.4-6.7,9.2-13.9,9.2c-2.6,0-3.4,1.8-3.4,2.8C206.3,54.9,208.4,55.9,211.6,55.9z M209.8,46.9c-1.1,0-2.7,0-3.6-1.8
						c-0.7-1.4-0.5-3.8-1.8-4.8c1.4,0.4,2.8,0.4,3.9,0.4c3.6,0,7-2.5,9.6-2.5c1.7,0,2.3,1.1,2.3,2.2C220.2,44,213.2,46.9,209.8,46.9
						z"/>
				</g>
				<g>
					<path class="st0" d="M31.5,109.4c2.7,0,2.2-16.6,6.5-16.6c1,0,1.3,1,1.3,2.3c0,3.8-1.8,9.3-1.8,12.3c0,1.5,0.4,2,1.1,2
						c1.9,0,5.3-18.3,8.5-18.3c1,0,1.5,1.1,1.5,2.1c0,3.8-4.9,14.8-4.9,17.9c0,0.5,0.1,0.9,0.5,0.9c2,0,6-8.6,7.3-12.9
						c0.7-2.2,1.7-3.4,2.6-3.4c0.8,0,1.5,0.9,1.5,2.7c0,4.3-4,14.4-7.5,21.2c-2.7,5.3-6.9,12.8-6.9,17c0,2.2,0.4,4.4,3.5,7.1
						c-5.1-0.3-7.2-0.8-9.1-4.8c-8.5,17,15.7,15.3,7.4,30.4c-1.5-2.7-13.5-5.5-13.5-21.3c0-13.6,11.9-21.6,11.9-27.3
						c0-1.1-0.4-2.1-1.4-2.9c-2.6-2.2-2.7-4.1-4.8-4.1c-1.5,0-3.4,3.5-1.4,6.6c0.6,1,1.2,1.7,1.2,2.6c0,2.2-3.5,8.2-6,8.2
						c-2.5,0-4.4-6.1-4.4-16c0-8.8,2-17.6,4.5-17.6c0.7,0,1,0.5,1,1.1c0,1-0.3,3.1-0.3,6.6C29.9,109,30.8,109.4,31.5,109.4z"/>
				</g>
				<g>
					<path class="st0" d="M51.8,132.7c3.3,0,6.1-2.5,6.1-8v-8.1c0-3.1,0.2-6.6,2.3-9.1c-0.2,1-0.2,2.2-0.2,3.2
						c0,6.9,3.8,11.6,3.8,18.2c0,2.5-0.7,3.8-2.6,3.8c-1.8,0-1.7-1.7-2.1-1.7c-0.3,0-0.8,1-0.8,2.1c0,1.7,1.2,4.3,4.5,4.3
						c2.9,0,5.2-2.6,5.2-5.6c0-7.2-5.6-15.1-5.6-22.8c0-3.4,0.9-5.6,1.6-7.3c0,15.9,13.5,27.4,13.5,34c0,1.5-1.1,2.7-2.8,2.7
						c-1.8,0-2.7-1.5-2.7-2.6c0-0.6-0.1-0.7-0.3-0.7c-0.5,0-1.9,1.6-1.9,3.7c0,2.6,2.1,5.8,6.1,5.8c4.5,0,7-3.8,7-7.3
						c0-8.4-16.3-21-16.3-34.6c0-2.3,0.4-6.1,2.1-8.9c-10.5,6.8-13.8,15.8-13.8,23.7c0,6.9-0.2,10.3-3.7,10.3
						c-1.8,0-2.3-1.7-2.9-1.7c-0.5,0-0.7,1.4-0.7,1.8C47.5,131,49.7,132.7,51.8,132.7z"/>
				</g>
				<g>
					<path class="st0" d="M190,53.1c3.5,0,6.1-1.6,6.1-2.6c0-0.3-0.5-0.6-1.5-0.6c-1,0-3.1-0.1-7-0.7c-3.4-0.6-5.9-1.8-6.9-1.8
						c-0.3,0-0.5,0.2-0.5,0.4C180.2,49.9,184,53.1,190,53.1z M172.6,43c1-0.7,5.5,0.4,11.3-2.5c0.7-0.4,1.4-0.6,2.1-0.6
						c2.8,0,2.1,3.2,4.6,3.2c2,0,4.5-1.7,6.1-1.7c2.4,0,5.8,7.5,5.8,11c0,4.1-6.1,6.5-13.4,6.5c-10.6,0-17-9.2-17-15.2
						C172.1,43.3,172.3,43.1,172.6,43z"/>
				</g>
				<g>
					<path class="st0" d="M53.5,162.8c-2.6,0.6-6.9,4.8-6.9,11.3c0,7.8,8.4,19.9,22.2,19.9c11.6,0,14.5-8.1,14.5-13.5
						c0-12-7.4-20.5-17-20.5c-5.3,0-10,3.8-10,9.5c0,5.3,4,13.2,13.5,13.2c4.5,0,7.1-3.2,7.1-6.9c0-3.6-3.3-8.5-8-8.5
						c-1.4,0-2.5,0.9-2.5,2.5c0,1.9,2.6,3.8,5.9,3.8c0.8,0,1.4-0.2,1.8-0.3c0.2,0.2,0.2,0.6,0.2,1c0,1.8-1.8,3-4.5,3
						c-4.1,0-8-3-8-7.8c0-2.9,2.5-4.9,6.1-4.9c7.1,0,11.3,6.3,11.3,12.6c0,5.7-3.1,8.9-9.5,8.9C56.9,185.9,50.7,174.4,53.5,162.8z"
						/>
				</g>
				<g>
					<path class="st0" d="M138.3,193.5c0,1.8,1.4,3.2,3.2,3.2c1.8,0,3.2-1.4,3.2-3.2c0-1.7-1.4-3.2-3.2-3.2
						C139.7,190.4,138.3,191.8,138.3,193.5z M144.5,209.5c3.8,0,3.6-0.3,4.8-0.3c1.2,0,1.3,0.7,1.3,1.2c0,1.7-3.9,3.9-10.8,3.9
						c-4.1,0-6.5-2.2-7.3-4.5c-4,2.5-10,4.9-16,4.9c-16.3,0-20.5-7.1-25.6-9.4c-3.9-1.8-9.9,1.7-18.3-7.7c1.1,0.2,2.6,0.3,3.8,0.3
						c7.3,0,11.2-3.6,11.2-9.3c0-0.7-0.1-1.5-0.2-2.2c2.2,0.9,7.3,4.7,8.5,11.5c0.2,0.8,3.4,1.5,5.5,1.5c2.9,0,6.5-1.2,7.1-5.9
						c9.6-0.8,16-6.4,17.4-13.6c3.4,1.1,7.3,4.2,8.3,5.8c1.4-0.5,2.9-0.7,4.8-0.7c2.6,0,5.4,0.5,8.8,1.5c0.2-1,0.3-2.3,1.9-2.3
						c2.4,0,1.7,2.6,2.5,4.2c0.4,0.8,2.4,1.3,2.4,2.9c0,1.5-1.3,2.1-2.1,2.1c-0.3,0-0.7-0.1-1-0.1c-1.6,0.5-1.7,12-8.4,12
						c-4.9,0-9.5-4.1-11.5-9.2c-0.6-1.5-1.7-2.5-2.9-2.5c-1.3,0-2,0.2-3.5,1.9c-4.3,4.7-11.5,8.8-20.3,8.8c-2.7,0-4.9-0.2-5.4-0.2
						c-0.3,0-0.3,0.1-0.3,0.2c0,0.5,2.7,2.7,8.6,2.7c14,0,17.5-7.9,19.7-7.9c0.3,0,1.3,0,1.8,1.3C132.9,207.7,140,209.5,144.5,209.5
						z"/>
				</g>
				<g>
					<path class="st0" d="M192.8,158.7c-1.7,0-10.9,12.4-16.9,12.4c-1.4,0-2.6-2.7-2.6-4.8c0-1.1,0.7-1.9,3.3-2.5
						c13.7-3.1,10.7-13.4,22.4-13.4c6.5,0,13.6,4.4,13.6,14.3c0,10.5-15,23.6-17.2,23.6c-1.8,0-3.8-2.6-3.8-4.4
						c0-0.5,0.2-1.3,1.8-1.9c7.6-3,12-10.1,12-13.6c0-0.8-0.4-1.6-1.4-1.6c-1.4,0-7.2,13.2-13.6,13.2c-4.5,0-9-4.1-9-6
						c0-3.2,12.9-9.1,12.9-13.6C194.3,158.8,193.5,158.7,192.8,158.7z M201.4,153.8c-1.1,0-2.3,0.9-2.3,3c0,2.4,1.8,3.9,2.9,4.4
						c0.6,0.3,1.4,0.6,2.3,0.6c2.3,0,4.2-0.6,4.2-2.6C208.4,156.8,204.9,153.8,201.4,153.8z"/>
				</g>
				<g>
					<path class="st0" d="M52.5,61.4c0,1.8,1.5,3.2,3.2,3.2s3.2-1.4,3.2-3.2c0-1.7-1.4-3.2-3.2-3.2S52.5,59.7,52.5,61.4z M48.4,54.3
						c0,1.8,1.4,3.2,3.2,3.2c1.7,0,3.2-1.4,3.2-3.2c0-1.7-1.4-3.2-3.2-3.2C49.8,51.1,48.4,52.5,48.4,54.3z M45.5,76.1
						c-1.8,0.5-5.7,2.7-5.7,6.7c0,2.9,2.2,4.7,5,4.7c1.4,0,2.5-0.3,3.1-0.8c-2.2-2.1-3-4.5-3-6.9C45,78.1,45.2,77.1,45.5,76.1z
						 M26,77.2c-0.1,0.4-0.1,0.8-0.1,1.2c0,3.7,2,5.8,4.6,5.8c2,0,4.3-1.2,6.4-3.8C36,80.6,35,80.7,34,80.7
						C31.1,80.7,27.9,79.9,26,77.2z M23.2,84.3c0,6.1,1.8,8.9,5.1,8.9c2.5,0,6-1.8,10-5.4c-3.1,0.7-5.5,1.2-7.7,1.2
						C27.8,89.1,25.6,88,23.2,84.3z M43.8,52.4c0.4-1.3,0.7-2.9,0.7-4.6c0-3.8-1.8-9.6-7.2-9.6c-3.1,0-5.3,2.5-5.3,5.4
						C32,49.9,38.3,52.4,43.8,52.4z M37.1,72.5c-2.6,0-5.5-3.3-5.5-6.2c0-1.6,1.2-3.6,2.1-3.6c0.3,0,0.5,0.2,0.5,0.8
						c0.5,3.9,3,6.1,5.4,7.2c0.2,0.2,0.4,0.2,0.4,0.4C40,71.7,38.5,72.5,37.1,72.5z M44.4,62.8c0.6,0.7,2.1,1.7,2.1,2.2
						c0,1.1-0.6,2.5-1.9,2.5c-2.8,0-5-4.2-5-6.6c0-1.5,0.9-1.7,2.1-1.7c0.6,0,0.8,0.1,1.2,0.3C43.5,60,43.5,61.6,44.4,62.8z
						 M25.7,72.7c-0.1,0.2-0.2,0.6-0.2,0.9c0,0.7,0.8,1.5,1.5,1.5c0.6,0,1-0.2,1.4-0.2c1.9,0,4,1.4,7.2,1.4c1.8,0,4-0.6,6.7-1.9
						c5.7-2.9,8-10,8-11.2c0-1.5-1.2-1.3-2.2-2.7c-1-1.4-0.6-2.6-1.3-3.3c-0.4-0.4-1.5-0.4-2.9-0.5c-0.5-0.1-1.1-0.1-1.8-0.1
						c-2.6,0-5.8,0.3-9.3,2.5C25.8,63.5,26.8,70.8,25.7,72.7z M52.1,69.5c-1.8,2.1-3.6,5.6-3.6,9.2c0,4.3,2.6,7.9,6.7,7.9
						c3.9,0,5.7-3.4,5.7-6.8C61,74.4,56.1,70.7,52.1,69.5z M35.1,54.2c0,0-2.3,1.7-5.2,1.7c-3.4,0-6.1-2.5-6.1-6.1
						c0-2.5,1.3-5,4.2-6.3c-0.1,0.5-0.1,0.9-0.1,1.4C27.9,49.4,30.4,52.9,35.1,54.2z"/>
				</g>
				<g>
					<path class="st0" d="M175.6,80.7c0,1.8,1.5,3.4,3.3,3.4c1.8,0,3.3-1.5,3.3-3.4c0-1.8-1.5-3.3-3.3-3.3
						C177.1,77.3,175.6,78.8,175.6,80.7z M175.8,90.7c0,2.1,1.7,3.7,3.8,3.7c2.1,0,3.7-1.7,3.7-3.7c0-2.1-1.7-3.7-3.7-3.7
						C177.5,87,175.8,88.6,175.8,90.7z M164.4,97.5c0,3,2.5,5.5,5.5,5.5c3,0,5.5-2.5,5.5-5.5c0-3-2.5-5.5-5.5-5.5
						C166.8,92,164.4,94.5,164.4,97.5z M167.3,86.2c0,1.8,1.4,3.2,3.2,3.2c1.8,0,3.2-1.4,3.2-3.2c0-1.8-1.4-3.2-3.2-3.2
						C168.7,83,167.3,84.5,167.3,86.2z M156.9,92.6c0,1.7,1.4,3.2,3.2,3.2c1.8,0,3.2-1.4,3.2-3.2c0-1.8-1.4-3.2-3.2-3.2
						C158.3,89.4,156.9,90.9,156.9,92.6z M165.1,74c0,2.8,2.3,5.1,5.1,5.1c2.8,0,5.1-2.3,5.1-5.1c0-2.8-2.3-5.1-5.1-5.1
						C167.4,68.9,165.1,71.2,165.1,74z M171.1,64.2c0,1.7,1.4,3,3,3c1.7,0,3-1.4,3-3c0-1.7-1.4-3-3-3
						C172.4,61.1,171.1,62.5,171.1,64.2z M156.6,71.8c0,1.7,1.3,3,3,3c1.7,0,3-1.4,3-3c0-1.7-1.4-3-3-3
						C158,68.8,156.6,70.1,156.6,71.8z M156.2,82.2c0,2.7,2.2,4.9,4.9,4.9c2.7,0,4.9-2.1,4.9-4.9c0-2.7-2.2-4.9-4.9-4.9
						C158.4,77.3,156.2,79.5,156.2,82.2z M146.2,87.3c0,2.5,2.1,4.5,4.5,4.5s4.5-2.1,4.5-4.5c0-2.5-2.1-4.5-4.5-4.5
						S146.2,84.8,146.2,87.3z M148.9,76c0,1.8,1.4,3.2,3.2,3.2c1.8,0,3.2-1.4,3.2-3.2c0-1.7-1.4-3.2-3.2-3.2
						C150.3,72.9,148.9,74.3,148.9,76z M176.9,100.6c0-1.6,1.4-2.9,3-2.9c1.8,0,3.1,1.4,3.1,2.9c0,1.8-1.4,3.1-3.1,3.1
						C178.3,103.7,176.9,102.4,176.9,100.6z"/>
				</g>
				<g>
					<path class="st0" d="M178.9,192.3c0.4,0,0.9,0.2,0.9,1.7c0,1.7-0.8,4.1-3.7,5.9c-2,1.4-4.7,2.5-8.7,2.6
						c0.6-1.9,1.1-3.9,1.1-5.8c0-0.6-0.1-1.1-0.2-1.8h1C175.8,194.7,178.5,192.3,178.9,192.3z M179.6,184.4c0.6-0.6,0.8-1.4,0.8-2.3
						v-1.8c0-2.3-3.5-3.7-8.3-3.7c-5.8,0-8.9,2.6-8.9,3.7v3.7c0,1.5,3.5,3,7.8,3C174.4,187,177.5,186.1,179.6,184.4z M183.7,185.2
						c-2.1,1.6-6.9,5.2-15,5.2c-4.3,0-6.2-1.4-6.9-1.4c-0.8,0-1.7,0.8-2.6,1.8c-1.9,2.2-4.4,6.4-4.4,10.9c0,3.2,2.5,6.4,7.1,6.4
						c14.9,0,26.1-9.3,26.1-16.9C188.1,187,185.6,185.2,183.7,185.2z"/>
				</g>
				<g>
					<path class="st0" d="M186.5,118.2c0,2,0.6,4.3,2.6,4.3c1.7,0,3.1-2.6,3.1-5.3c0-3.2-0.6-5.7-0.6-6.9c0-0.6,0.2-0.8,0.6-0.8
						c1.2,0.1,2.3,3.4,3.6,3.4c1.4,0,3.6-2.6,4.4-2.6c0.2,0,0.3,0.3,0.3,0.4c0,1.2-1.8,3.8-1.8,4.9c0,0.9,4.6,1,4.6,1.8
						c0,1.2-4.9,1.2-7.2,2.2c-2.2,1-3.6,2.2-3.6,3.7c0,1.6,1.6,1.9,3.8,1.9c5.3,0,9.1-2.9,10.3-2.9c0.2,0,0.4,0.2,0.4,0.4
						c0,0.8-2.7,3.4-2.7,4.6c0,1.4,5,2.9,4.9,3.7c-0.1,0.2-0.4,0.3-0.9,0.3c-0.9,0-2.2-0.2-3.3-0.2c-0.6,0-1.2,0.1-1.4,0.4
						c-0.6,0.6,0.2,4.9-1,4.9c-1,0-3.7-9.4-9.9-9.4c-0.9,0-1.5,0.7-1.5,1.9c0,3.2,3.1,6.9,6.1,8.6c1.3,0.9,3.6,1.8,3.6,2.2
						c0,1-5.1,0.1-5.1,1.7c0,1.4,0.6,3.6,0.6,4.9c0,0.4-0.1,0.9-0.6,0.9c-0.9,0-3.3-4.4-4.4-4.4c-1,0-3,2.6-3.9,2.6
						c-0.2,0-0.4-0.2-0.4-0.5c0-1.8,3-6,3-10c0-1.9-0.2-6-2.6-6c-1.9,0-4.1,3-5,6c-0.6,1.8-0.2,8.5-1.4,8.5c-1.2,0-0.9-4.5-2.5-4.5
						c-1.2,0-3.7,2.2-4.6,2.2c-0.2,0-0.3-0.1-0.3-0.2c0-1,2.3-4.1,2.3-4.7c0-1.2-5.3-1.4-5.3-2.3c0-0.6,2.1-1,4-1.3
						c4.1-0.7,10-3.7,10-7.8c0-4.6-4.5-6.6-7.4-8.5c-1.5-1-3.2-1.8-3.2-2.4c0-0.6,1.9-0.6,2.7-0.6c1.2,0,2.4-0.1,2.4-1
						c0-0.7-0.2-2.2-0.2-3.3c0-0.8,0.1-1.4,0.4-1.4c1.2,0,2.9,3.9,3.7,3.9c1.3,0,3-3.2,4.2-3.2c0.4,0,0.6,0.2,0.6,1
						C188,112,186.5,115.3,186.5,118.2z M148.5,94.9c0.9,6.8,10,3.3,10,11.5c0,1.2-0.3,3-0.3,4.5c0,1.8,0.2,3.3,1.5,3.3
						c1.4,0,1.7-1,1.7-2.2c0-1.3-0.3-2.9-0.3-3.7c0-2.8,2-3.4,3.2-3.4c3,0,5.3,3.1,9.9,3.1c-1,5.1-11.6,3.7-11.6,9.3
						c0,2.8,2.8,3.4,4.6,3.4c1.7,0,2.2-0.2,2.2-1.7c0-0.8-0.2-1.7-0.2-2.2c0-0.3,0.2-0.6,0.6-0.6c1.7,0,10.3,6.5,10.3,8.5
						c0,1.8-9.1,3.7-11.7,3.7c-0.8,0-1-0.6-1-0.9c0-0.6,1.4-2.2,1.4-3.2c0-0.7-1.2-1.2-4.4-1.2c-1.5,0-2.6,0.2-2.6,1.4
						c0,2.2,3.5,4.8,3.5,6.8c0,1.6-1,2.6-3.5,2.6c-2.2,0-5.4-1.7-5.4-4.5c0-2.2,2.3-4.5,2.3-5.8c0-0.4-0.3-1-1.3-1
						c-2.9,0-3.7,7.8-14.2,8.7c1.7-1.5,3.1-3.2,3.1-6.6c0-1.7-0.4-3-0.4-4.9c0-2.4,1.1-3.6,2.7-3.6c3,0,4.4,4.1,6.3,4.1
						c1,0,2.2-0.9,2.2-2.4c0-6.1-11.6-5.2-11.6-13.7C145.6,101.7,146.4,98.8,148.5,94.9z"/>
				</g>
				<g>
					<path class="st0" d="M163.6,146.7c0,1.1,0.8,2,1.9,2c1.3,0,2.1-1.1,2.1-2.4c0-1.7-1.5-4-2.9-4c-0.6,0-0.4,1-0.6,2
						C164,145.1,163.6,146,163.6,146.7z M159.5,136.1c8.4,1.6,12.9,7.9,12.9,13.8c0,4.1-2.5,7.8-7,7.8c-4.1,0-7-2.8-7-7.2
						c0-3.4,2.6-6.8,2.6-10.3C161,138.8,160.6,137.4,159.5,136.1z M148.9,149.6c0.8,0.8,1,1.6,1,2.4c0,1.2-0.6,2.5-0.6,3.8
						c0,1.9,1.4,3.6,3.5,3.6c2.2,0,3.8-1.8,3.8-3.8C156.6,152.6,153.5,149.6,148.9,149.6z M175.3,144.5c0.5,0.9,0.8,1.7,0.8,2.5
						c0,2.2-1.5,4.3-1.5,6.6c0,2.7,2,4.8,5,4.8c3.3,0,5.5-2.6,5.5-5.7C185.1,148.5,181.3,144.9,175.3,144.5z M150.8,140.3
						c3.7,0.5,4.5,1.8,4.5,2.8c0,1.8-1.6,2.3-3.1,2.3c-1.1,0-2.4-0.2-3.7-0.2c-1.8,0-3.5,0.4-4.9,2.1c1,0.1,2.6,0.9,2.6,2.5
						c0,4.6-12.8,0.8-12.8,12.7c0,6.3,6.5,13.2,16.4,13.2c5.1,0,8.4-1.7,8.4-3.6c0-1.5-2.7-0.5-2.7-1.7c0-0.6,1-1.6,1-2.5
						c0-0.4-0.3-1.1-1-1.1c-1.4,0-4.1,2.3-9.6,2.3c-4.3,0-8.5-2.5-8.5-5.8c0-0.7,0.3-1.1,0.8-1.1c0.5,0,1.1,0.3,1.7,0.3
						c0.5,0,0.5-0.3,0.5-1.2c0-0.9,0-3.4,1.5-3.4c1.5,0,4.4,5.6,15.4,5.6c3.7,0,10.7-0.7,13.4-3.1c-0.1,8.7-6.9,20.3-21.3,20.3
						c-14.9,0-22.9-12-22.9-23c0-12.2,10-23.3,23.6-23.3c3.5,0,6.5,1.2,6.5,2.7C156.4,139.1,151.2,137.8,150.8,140.3z"/>
				</g>
				<g>
					<path class="st0" d="M99.2,49.3c5.3,0,7.6,4.6,7.6,9.6c0,2.2-0.6,5.5-1.7,5.5c-1,0-0.9-1.8-1-3.5c-0.1-2.1-0.6-2.6-1.3-2.6
						c-1.3,0-2.2,3.2-2.2,6.1c0,1.8,0.3,3.9,1.7,3.9c0.8,0,1.5-0.4,2-0.9c-0.3,3.7-3,6.9-6.9,6.9c-7,0-9.6-8.2-10.4-13
						C82.9,65.8,79,69,72,69c-6.5,0-9.5-4.8-9.5-9.3c0-1.4,0.5-4.9,2.2-4.9c2,0,0.2,6.5,4.2,6.5c1,0,2.7-0.8,3.7-3.4
						c0.6-1.6,0.9-3.3,0.9-4.7c0-2.2-0.5-3.5-2.1-3.5c-1.4,0-3,1-3.6,1.6c1.9-5.7,6.5-8.7,11.6-8.7c6.3,0,9.6,5.6,9.6,11.8
						c0,0.9-0.1,1.8-0.2,2.7C91.4,52.7,95.2,49.3,99.2,49.3z M93.1,58.7c0-1.4-0.3-1.7-0.6-1.7c-0.8,0-1.7,1-2.9,3.1
						c0.2,2.9,0.6,4.2,1.4,4.2C91.8,64.2,93.1,61.4,93.1,58.7z M82.2,61.9c0.9,0,2-1,4.1-3.3c0.2-1,0.2-2,0.2-3.2
						c0-1.6-0.6-3.3-1.6-3.3c-2.4,0-3.6,6.4-3.6,8.1C81.2,61.1,81.7,61.9,82.2,61.9z M95.2,69c2,0,4.2-7.6,4.2-12.4
						c0-1-0.2-2.1-0.6-2.1c-1.7,0-4.5,7.9-4.5,12.2C94.3,68.3,94.7,69,95.2,69z M75.6,64.6c2.7,0,5.8-14.7,5.8-17.1
						c0-0.6-0.2-1.1-0.8-1.1c-2.5,0-5.9,14-5.9,17.1C74.8,64,74.9,64.6,75.6,64.6z"/>
				</g>
				<g>
					<path class="st0" d="M84.3,70.7c-3.4,0-3.6,4.2-3.6,12.5C78.2,77.7,74,71.8,69,71.8c-3.4,0-4.6,2.2-4.6,6.1
						c0,0.8,0.1,2,0.2,2.7c0.4-1.4,1.7-1.9,3.3-1.9c3.4,0,7.6,2.6,10.3,6.2c-3.1-0.5-6.1-1.1-8.7-1.1c-1.6,0-3,0.2-4.2,0.7
						c-2.3,1-5.4,4.5-5.4,9.6c0,0.8,0.1,1.7,0.2,2.6c2.8-6.2,10.2-9,15-9c1,0,1.7,0.1,2.2,0.2c-2.5,2.2-3,6.1-3.2,8.8
						c-0.1,1.3-0.6,1.4-1.4,1.4c0,2.6,2.1,6.5,2.1,8.5c0,0.7-0.4,1.4-0.8,1.5c0,3.5,3.5,6.1,3.5,8.3c0,0.6-0.2,1-0.4,1.3
						c0.2,1.4,4.1,3.8,4.6,5.1c0.6,1.5,1.3,1.7,1.7,1.7c1.4,0,3.5-1.6,3.5-3c0-0.5-0.4-1-0.7-1.3c-1.5-1.1-2.3-3.5-2.9-5.1
						c-0.6,0-1.3-0.2-1.5-1.2c-0.4-1.7-0.5-4.7-1.1-6.6c-1-0.2-1.5-0.6-1.5-2.8c0-1,0.6-5.1,0.6-6.5c-0.5,0-1.1-0.3-1.1-1.3
						c0-2.5,2.5-4.6,3.3-7.8c4.5,3.4,5.6,6.8,5.6,9.8c0,1.6-0.2,3.1-0.5,4.5c3.3-1.7,8.4-4.1,8.4-9.2c0-3-1.4-6.2-10.4-7.5
						c2.8-1,6.3-1.6,9.2-1.6c5.1,0,8,1.6,8.7,5.2c1-1.6,1.8-3.4,1.8-5.1c0-3.9-3.3-6.5-7.4-6.5c-4.9,0-9.2,2.5-13.8,5.7
						c2.1-4.3,3.5-6.9,6.1-6.9c0.4,0,0.8,0.1,1.2,0.2C89.8,74.1,86.2,70.7,84.3,70.7z"/>
				</g>
				<g>
					<path class="st0" d="M218.6,128.2c4,0,7.2,5.2,7.2,11.3c0,6.5-3,13.5-8.4,18.2c-0.1-10.7-13.3-7.3-13.3-15.1
						c0-3.4,2.4-5.6,5.3-5.6c2.5,0,4.5,0.7,6,2.2c-1.4-1.4-2.2-3.3-2.2-5.1C213.2,131,215.1,128.2,218.6,128.2z"/>
				</g>
				<g>
					<path class="st0" d="M159.5,46.6c-0.6-1-3-1.6-4.1-1.6c-3.5,0-5.9,2.5-6.4,4.7c-0.3-0.8-0.6-1.8-0.6-2.7c0-3.5,2.4-7.8,8.2-7.8
						c5.1,0,7.1,2.7,7.8,2.7c0.8,0,1.6-0.8,2.2-0.8c0.9,0,0.9,1.4,0.9,2.3c0,3.2-1.4,8.7-5,10.7c-0.6-1.4-1.9-2.9-4-3.8
						c-0.6-0.2-0.8-0.7-0.8-1.2C157.8,48.2,158.6,47.1,159.5,46.6z M147.5,52.4c2.1,2,3.9,2.9,6.1,2.9c0.9,0,1.9-0.2,2.5-0.2
						c0.7,0,1.2,0.3,1.2,0.9c0,0.9-0.8,2.3-1.8,3.1c0.9,0.4,2,0.6,3.1,0.6c4.5,0,9.7-2.9,9.7-10c1,1.3,1.5,3.9,1.5,5.1
						c0,8.7-6.4,12-12.3,12c-3.8,0-5.8-1.3-6.2-1.3c-1.5,0-1.4,3-2.5,2.9c-1.8-0.3-3.5-4.4-3.5-8.7C145.4,57.1,146,54.4,147.5,52.4z
						"/>
				</g>
				<g>
					<path class="st0" d="M79.2,1.8c0-0.5-2.4-1-5.7-1c-5.2,0-4.5,4.3-8.4,4.3c-4.1,0-3.1-4.5-8.4-4.5c-3.2,0-6.1,0.6-6.1,1.3
						c0,0.9,3.7,0.6,3.7,3.2c0,2.8-8.1,3.6-8.1,5.3c0,0.6,0.6,0.8,1.4,0.8c1.8,0,4.5-0.8,6.5-0.8c1.1,0,2.2,0.2,2.2,1.3
						c0,2-4.3,5.6-4.3,7.2c0,0.5,0.4,0.6,0.8,0.6c1.6,0,4.3-4.1,6.9-4.1c4.2,0,1.4,9,3.7,9c2.4,0,1.4-8.9,4.8-8.9
						c2.8,0,4.9,6.1,6.8,6.1c0.5,0,0.9-0.4,0.9-0.9c0-1.7-2.4-5.1-2.4-7.3c0-1.4,1-2,2.2-2c1.8,0,4.3,1.1,5.7,1.1c0.5,0,1-0.2,1-0.7
						c0-1.9-7.1-4-7.1-6.5C75.3,2.9,79.2,2.9,79.2,1.8z M98,9.9c0,1.4,5,4.5,7.3,4.5c1.3,0,1.7-1.8,1.7-3.8c0-2.4-1-2.5-3.1-2.5
						C101.3,8.2,98,8.9,98,9.9z M106.3,25.6c0-4.8-12.9-13.5-13.1-17.2c0-0.3,0.2-0.7,0.5-1c2.2-2.3,11.4-4,11.4-6c0-1-1.9-1-2.9-1
						c-7.4,0-18.2,2.7-18.2,5.3c0,2.7,9.7,9.3,9.7,12.6c0,0.9-0.5,1.2-1.4,1.2c-2.7,0-8.6-3.3-11.4-3.3c-1.3,0-1.7,0.9-1.7,2.2
						c0,3.8,4.5,11.1,4.5,13.2c0,0.2-0.1,0.6-0.4,0.6c-1.4,0-8.2-8-10.6-8c-0.9,0-1,1.2-1,3v2.7c0,1.8-0.1,3-1,3c-2.1,0-3-5.8-5-5.8
						c-2.1,0-2.5,10.4-4.5,10.4c-2.3,0-0.3-11.4-2.6-11.4c-2.5,0-5.3,7.6-7,7.6c-0.6,0-0.8-0.6-0.8-1.2c0-2.3,1.4-6.1,1.4-8.3
						c0-1.1-0.3-1.7-1.3-1.7c-2.5,0-7.9,4-10,4c-0.3,0-0.7-0.2-0.7-0.5c0-1.9,8.7-8,8.7-10.7c0-2.6-12-0.9-12-3.9
						c0-2.6,8.5-5.2,8.5-7.8c0-2.3-10.1-3.3-14-3.3c-4.7,0-7.3,0.6-7.3,1.9c0,2.1,10.7,2.7,10.7,4.5c0,1.8-11.1,6.5-11.1,9.2
						c0,2.4,15.6,0.1,15.6,2.6c0,2.7-13.6,14.4-13.6,18.3c0,0.9,0.6,1.3,1.5,1.3c4.1,0,14.9-7.9,17.8-7.9c1,0,1.1,1.3,1.1,2.4
						c0,2.1-0.7,5.3-0.7,7.6c0,1.8,0.5,3.1,2.1,3.1c3,0,5.7-5,7.7-5c2.6,0,1,14.8,4.9,14.8c3.3,0,4.6-15.9,6.7-15.9
						c2.1,0,3.8,4.6,5.7,4.6c2.4,0,1.3-8,3.8-8c2.8,0,10.8,9.6,14.3,9.6c1.1,0,1.5-0.9,1.5-2c0-4.2-5.9-13.8-5.9-16.8
						c0-0.8,0.2-1,1.1-1c3.1,0,12.2,4.3,16.5,4.3C105.4,27.5,106.3,26.7,106.3,25.6z M33.5,21c0,1.6-6.1,6.9-8.2,6.9
						c-0.8,0-1-0.9-1-1.8c0-1.6,0.7-3.8,1.6-4.5c1-1,3.4-1.4,5.3-1.4C32.2,20.2,33.5,20.4,33.5,21z M92.1,29.2
						c0,2.8,10,16.4,11.9,16.4c1.6,0,2.8-2.8,2.8-5.2c0-0.6-0.2-1.3-0.5-1.7c-1.4-2-11.6-10-13.8-10C92.2,28.8,92.1,29,92.1,29.2z"
						/>
				</g>
				<g>
					<path class="st0" d="M220.1,5.1c0,1.1,0.9,2,2,2c1.1,0,2-0.9,2-2c0-1.1-0.9-2-2-2C220.9,3.1,220.1,4,220.1,5.1z M207.1,22.7
						c0-5.7-13.5-7.1-13.5-8.4c0-1,7.6-2.8,11.5-2.9c-6-7.6-14.5-6.9-14.5-8.2c0-0.8,6.4-2.4,12.3-2.4c4.9,0,9.6,1.1,9.6,4.9
						c0,2.1-1.7,4.2-1.7,7.4c0,1.8,0.9,3.3,3.2,3.3c2.5,0,3-2.6,3-5.4c0-2.3-0.4-4.1-0.4-5.2c0-3.3,2.3-5.6,5.6-5.6
						c2.7,0,3.3,1.2,7.3,1.2c-2.1,1.3-2.9,3.6-2.9,4.7c0,3.3,2.1,5.7,2.1,12.5c0,12.6-11.8,17.1-26.2,17.1c-4,0-8.2-0.3-12.3-1
						c-0.6-0.1-0.8-0.2-0.8-0.6c0-1,5.7-1.6,5.7-6.7c0-2-0.6-3.9-0.6-4.6c0-0.4,0.3-0.6,0.6-0.6c1.2,0,3.6,4.6,8,4.6
						C204.1,26.8,207.1,26.4,207.1,22.7z M220.6,14.7c0,7.1-5.2,12.5-14.5,14c1,0.1,2,0.1,3,0.1c10.9,0,14.9-4.9,14.9-9.1
						C223.9,17.4,222.6,15.3,220.6,14.7z"/>
				</g>
				<g>
					<path class="st0" d="M215.1,117.4c1.3-4,2.9-6.8,5.5-11.1c-2.6-1.4-9.6-4.2-9.6-8.9c0-5.5,6.8-9.8,8.3-9.8
						c0.6,0,0.8,0.5,0.8,1.6c0,2.9-1.4,7.5-1.4,10c0,2.2,1.4,4.4,2.7,4.4c1.4,0,5.1-4.8,5.1-9.5c0-8.5-7.4-11-9.7-11
						c-2.1,0-6,3.5-15.2,3.5c-17.1,0-21-17-21-24.4c0-0.3,0.1-0.4,0.2-0.4c0.4,0,2.1,2.1,7.5,2.1c2.8,0,5.4-0.7,9.4-0.7
						c9.5,0,13.8,6.6,19.7,15.1c3.6,2.2,12.1,5.8,12.1,15.9c0,8.9-9.5,13.9-11.8,23.4c3.7-0.4,5.8-6.9,9.6-6.9
						c1.9,0,2.8,1.5,2.8,3.9c0,3.5-2,8.8-5.8,12c0.1-0.3,0.1-0.7,0.1-1.2c0-2.2-0.9-5.4-3.4-5.4c-4,0-5.2,4.3-7.5,7.9
						c-2.3-8.1-5.4-15.5-11-19.9c-5.6-4.5-15.4-2.1-15.4-10.4c0-2.2,1.4-5.4,1.4-8c0-0.9-0.2-1.7-0.6-2.3c7.7,2.9,4.9,8,9.7,13.2
						c2.9,3.4,11.1,6.5,15.8,20.3c0.1-0.4,0.1-1.4,0.1-2.1c0-11.8-15.6-23.4-17-28.1c9.1,1,10.7,3.3,15,15.2
						C212.2,108.2,215.1,114.4,215.1,117.4z M213,78.7c0-1.7-4.2-1.8-4.6-6.5c-0.1-0.7-0.3-2-1.2-2c-1.4,0-0.3,4.4-1.9,4.4
						c-3.7,0-4.9-7.2-6.2-7.2c-0.3,0-0.7,0.2-0.7,1.2c0,0.9,0.2,1.4,0.2,2.5c0,1-0.2,1.8-1.2,1.8c-2.2,0-4.1-5-5.9-5
						c-0.4,0-0.8,0.2-0.8,0.6c0,1,1.6,2.7,1.6,3.6c0,1.9-5.2,0.9-5.2,2.5c0,0.7,0.7,0.9,1.7,0.9c1.7,0,4.3-0.7,5.7-0.7
						c0.8,0,2,0.2,2,1.2c0,1.1-2.9,2.6-2.9,3.6c0,0.5,0.5,0.7,0.9,0.7c2.2,0,6-3.7,8.7-3.7c0.5,0,1.7,0.2,1.7,1c0,1-2.7,2.9-2.7,4.4
						c0,0.4,0.2,0.9,0.7,0.9c1.4,0,3.3-3.7,6.1-3.7c1,0,2.6,0.4,3.3,0.4C212.7,79.4,213,79,213,78.7z"/>
				</g>
				<g>
					<path class="st0" d="M153.6,31c1.3,0,1.5,3.1,1.8,4.9c0.2,1,0.3,1.1,0.7,1.1c1,0,2.5-3.7,3.5-3.7c1.5,0,5.6,4.2,12.4,4.2
						c9.6,0,18.7-6.8,18.7-18.7c0-11.6-8.1-18.3-19.4-18.3c-5.3,0-9.3,2.6-11.3,2.6c-1.3,0.1-3.2-3.1-4.1-3.1
						c-0.4,0-0.8,0.8-0.8,2.2c0,0.9,0,3.7-1,3.7c-1.9,0-9.3-5.5-9.3-3.5c0,1.8,4.9,7.4,4.9,8.8c0,1.4-4.9,2.8-4.9,3.8
						c0,1.7,5.2,2.1,5.2,4.3c0,2.2-5.4,4-5.4,5.7c0,1.4,5.4,0.4,5.4,2.1c0,1.7-4,7.2-4,8.8c0,0.4,0.1,0.4,0.4,0.4
						C147.9,36.2,152.5,31,153.6,31z M155.9,17.9c0-0.9-3.1-2.6-3.1-3.5c0-0.1,0.2-0.2,0.4-0.2c0.9,0,2.4,0.3,3.6,0.3
						c1.1,0,1.2-4.5,2-4.5c0.6,0,1.5,4.2,2.4,4.2c1,0,2.9-1.2,3.7-1.2c0.1,0,0.3,0.1,0.3,0.2c0,0.6-2,2.7-2,3.4
						c0,0.7,4.5,1.6,4.5,2.2c0,0.8-4.5,0.7-4.5,1.4c0,0.6,1.7,2.8,1.7,3.5c0,0.2-0.1,0.2-0.2,0.2c-0.6,0-3.1-1.1-3.8-1.1
						c-0.9,0-2.3,3.3-3,3.3c-0.2,0-0.4-0.3-0.4-0.7l-0.2-3.2c0-0.3-0.1-0.6-0.5-0.6c-1,0-2.8-0.1-3.4-0.1c-0.4,0-0.6-0.1-0.6-0.2
						C152.7,20.7,155.9,18.5,155.9,17.9z M171.5,33.1c-5.6,0-9.2-2.8-9.2-4.2c0-0.7,0.5-1.2,1.1-1.2c1.8,0,5.6,2.7,6.9,2.7
						c0.3,0,0.6-0.1,0.6-0.6c0-1.4-1.4-3.8-1.4-5c0-0.3,0.2-0.5,0.7-0.5c2.2,0,5.3,0.9,7,0.9c0.5,0,0.7-0.3,0.7-0.6
						c0-1.8-5.2-5.2-5.2-6.2c0-1,6.4-2.4,6.4-3.9c0-1.6-8.8-0.5-8.8-2c0-1.1,1.7-3,1.7-3.9c0-0.4-0.3-0.6-0.9-0.6
						c-0.7,0-4.5,1.5-6.1,1.5c-0.8,0-1.8-0.2-1.8-1.3c0-1.8,3.1-3.8,8-3.8c7.9,0,12.6,5.4,12.6,14.5
						C183.8,30.2,175.8,33.1,171.5,33.1z"/>
				</g>
				<g>
					<path class="st0" d="M117.5,171c0,0.7-0.2,1.5-0.9,2.3c-0.9-1.6-3.4-2.4-4.5-2.4c-8.2,0-5.1,11.9-13.9,11.9
						c-3.7,0-4-0.5-5.4-0.5c-0.6,0-0.9,0.3-0.9,0.7c0,2.1,3,7.2,11.2,7.2c8.2,0,16.1-5,16.1-11.2c0-1-0.2-2.1-0.7-3.3
						c0.3-0.5,1.1-0.8,1.8-0.8c1.3,0,2,1.4,3.2,1.4c1.3,0,2.2-1,2.2-2.2c0-1-0.6-1.7-1.5-2.2c0.6-0.5,1.1-1.3,1.1-2.2
						c0-1.3-1-2.6-2.6-2.6c-0.7,0-1.2,0.2-1.8,0.8c-0.1-1.4-0.9-2.8-2.5-2.8c-1.2,0-2.1,0.9-2.1,2.2
						C116.6,168.6,117.5,169.6,117.5,171z"/>
				</g>
				<g>
					<path class="st0" d="M96,174c-2.4,0-6-2.6-6-4c0-1.2,1.1-1.8,2-1.8c2,0,5.6,2.5,5.6,4.6C97.6,173.3,97.2,174,96,174z
						 M73.8,156.2c6.4,1.6,9.6,5,10.2,9.1c0.6,3.9,1.4,7.1,2.9,8.7c2,2.2,5.9,4.2,9.3,4.2c2.9,0,5.2-0.9,5.2-3.6
						c0-2.9-3.9-9.3-9.6-9.3c-0.6,0-1.3,0.1-2.1,0.1c-0.7,0-1.8-0.2-2.4-0.7c-1.3-1.1-1.7-7.1-4.1-10.7c-2.6-4-5.5-5.1-9.4-5.1
						c-2.8,0-5.9,1.5-5.9,3.7C68,153.9,68.7,154.9,73.8,156.2z"/>
				</g>
				<g>
					<path class="st0" d="M113.8,146.4c0-3.6-7.4-3.7-7.4-9.1c0-1.4,0.9-3.7,2.6-6.1c0.7,4.1,2.4,6.3,6,7.7c7.1,2.6,8,6.6,8,10.8
						c0,7.2-5,16.1-17.9,16.1c-10.4,0-17.8-9.2-17.8-17c0-2.2,0.6-4.6,1.9-4.6c1.2,0,1.6,1,2.6,1.9c3.6,3.6,7.5,4.5,13.2,4.5
						C110.1,150.7,113.8,148.6,113.8,146.4z M114.1,152.2c-2.7,1.3-3.8,1-3.8,3.8c0,1-0.2,2.4-0.2,3.1c0,1,0.2,1.5,1.3,1.5
						c2.9,0,7.4-4.9,7.4-9c0-1.1-0.6-1.6-1.4-1.6C116.8,150,116.1,151.3,114.1,152.2z M88.7,111.9c0-5.1,12.1-7.8,12.1-14.1
						c0-1-0.4-2.9-1.1-4.2c4.2,2.3,7.3,6.2,7.3,9.4c0,5.5-5.7,8-5.7,11.5c0,4,6.1,4.6,6.1,9.6c0,4.1-5.8,8.8-5.8,14
						c0,4.1,2.9,7.4,7.3,8c-1.4,0.3-2.7,0.6-4.1,0.6c-8.1,0-16.3-6.6-16.3-14.5c0-3.9,1.7-7.3,4.2-9.8c2.2,1.9,4.5,3.2,5.9,3.2
						c1.3,0,1.8-0.6,1.8-1.6C100.4,120.9,88.7,118.2,88.7,111.9z"/>
				</g>
				<g>
					<path class="st0" d="M42.5,151.3c0.3,2.7,2.9,4.8,5.8,4.5c1-0.1,2-0.4,2.6-0.8c0.6,2.6,2.8,4.2,5.7,3.8
						c2.9-0.4,4.9-2.7,4.6-5.6c-0.1-0.8-0.2-1.3-0.5-1.8c0,0,0.4,0,0.7-0.1c2.9-0.5,4.8-2.9,4.6-5.6c-0.3-2.9-2.9-5-5.6-4.7
						c-1,0.1-2,0.5-2.6,1.1c-0.7-2.4-3-4.5-6-4c-2.8,0.5-4.6,2.8-4.3,5.8c0,0.5,0.1,1,0.4,1.6c0,0-0.5,0.1-0.8,0.1
						C44.6,145.8,42.1,148.2,42.5,151.3z M57.4,148.2c0.2,1.7-1,3.2-2.7,3.4c-1.7,0.2-3.2-1-3.4-2.7c-0.2-1.7,1-3.2,2.7-3.4
						C55.7,145.3,57.2,146.5,57.4,148.2z"/>
				</g>
			</g>
		</g>
	</g>
</g>
</svg>
